Coordinates
version=1
nRows=6
nColumns=63
inDegrees=yes

Units are S.I. units (second, meters, Newtons, ...)
If the header above contains a line with 'inDegrees', this indicates whether rotational values are in degrees (yes) or radians (no).

endheader
time	pelvis_tilt	pelvis_list	pelvis_rotation	pelvis_tx	pelvis_ty	pelvis_tz	hip_flexion_r	hip_adduction_r	hip_rotation_r	knee_angle_r	knee_angle_r_beta	ankle_angle_r	subtalar_angle_r	mtp_angle_r	hip_flexion_l	hip_adduction_l	hip_rotation_l	knee_angle_l	knee_angle_l_beta	ankle_angle_l	subtalar_angle_l	mtp_angle_l	L5_S1_Flex_Ext	L5_S1_Lat_Bending	L5_S1_axial_rotation	L4_L5_Flex_Ext	L4_L5_Lat_Bending	L4_L5_axial_rotation	L3_L4_Flex_Ext	L3_L4_Lat_Bending	L3_L4_axial_rotation	L2_L3_Flex_Ext	L2_L3_Lat_Bending	L2_L3_axial_rotation	L1_L2_Flex_Ext	L1_L2_Lat_Bending	L1_L2_axial_rotation	L1_T12_Flex_Ext	L1_T12_Lat_Bending	L1_T12_axial_rotation	Abs_r3	Abs_r2	Abs_r1	Abs_t1	Abs_t2	neck_flexion	neck_bending	neck_rotation	arm_flex_r	arm_add_r	arm_rot_r	elbow_flex_r	pro_sup_r	wrist_flex_r	wrist_dev_r	arm_flex_l	arm_add_l	arm_rot_l	elbow_flex_l	pro_sup_l	wrist_flex_l	wrist_dev_l
      6.50000000	     30.50497689	      4.11476849	    -95.21799177	      0.56069796	      0.94625273	      0.05964369	     31.00493483	    -15.37430061	    -10.09774730	     40.88374949	      0.71355604	      3.19196241	    -18.82952297	      0.00000000	     24.82464258	     12.97399063	      2.88666308	     29.88222827	      0.52154327	     -3.99691937	     11.13643565	      0.00000000	      0.14865535	      2.22083948	      0.82731229	      0.27606785	      2.95371650	      0.87901931	      0.24422587	      5.39974910	      0.87901931	      0.16989820	      5.39974910	      0.72389826	      0.13804136	      4.52873586	      0.67219124	      0.08494167	      3.44008035	      0.62048422	      1.06183029	     25.12258032	      4.60126277	      0.00000000	      0.00000000	      0.00000000	      0.00000000	     -0.00000000	    205.96216455	   -140.67411704	    104.40659494	     68.90471232	     78.12127141	      0.00000000	      5.00000014	   -132.68558680	   -109.91903711	   -587.69523998	     79.12302570	     64.01680255	      0.00000000	      5.00000014
      6.51666670	     30.43799552	      4.19671112	    -95.33982916	      0.55858356	      0.94560154	      0.06000343	     30.95220915	    -15.11418506	    -10.15537979	     40.68928144	      0.71016193	      3.16849531	    -18.84754527	      0.00000000	     24.85833452	     12.80787146	      2.99868779	     29.85026027	      0.52098532	     -3.94213382	     11.09877557	      0.00000000	      0.14887981	      2.24694012	      0.99266031	      0.27648469	      2.98843036	      1.05470158	      0.24459463	      5.46321021	      1.05470158	      0.17015473	      5.46321021	      0.86857777	      0.13824979	      4.58196029	      0.80653650	      0.08506992	      3.48051025	      0.74449523	      1.06343357	     25.41783603	      5.52087883	      0.00000000	      0.00000000	      0.00000000	      0.00000000	     -0.00000000	    204.35092772	   -140.81668072	    103.00801313	     69.91475832	     77.86124255	      0.00000000	      5.00000014	   -134.70285048	   -111.52010826	   -589.41982503	     79.92087320	     64.58416299	      0.00000000	      5.00000014
      6.53333330	     30.40359634	      4.24414837	    -95.38074106	      0.55598936	      0.94452227	      0.06027404	     30.88653468	    -14.88800114	    -10.27992722	     40.59680130	      0.70854785	      3.23430331	    -18.88122283	      0.00000000	     24.86549141	     12.67832813	      3.25014842	     29.86368436	      0.52121962	     -3.72821351	     11.06510782	      0.00000000	      0.15677464	      2.24948861	      1.09098025	      0.29114617	      2.99181985	      1.15916651	      0.25756505	      5.46940660	      1.15916651	      0.17917773	      5.46940660	      0.95460772	      0.14558093	      4.58715717	      0.88642145	      0.08958103	      3.48445786	      0.81823519	      1.11982554	     25.44666504	      6.06770484	      0.00000000	      0.00000000	      0.00000000	      0.00000000	     -0.00000000	    203.35895337	   -141.38402171	    101.97210530	     71.12536498	     77.52802831	      0.00000000	      5.00000014	   -137.31411361	   -113.23483144	   -591.67903140	     80.75292530	     65.37617019	      0.00000000	      5.00000014
      6.55000000	     30.29951597	      4.57958705	    -95.34464335	      0.55327101	      0.94287743	      0.06078483	     31.00855419	    -14.55087187	    -10.53152001	     40.40980013	      0.70528406	      3.37493769	    -18.90882933	      0.00000000	     25.17425429	     12.46938347	      3.66609345	     29.94526415	      0.52264345	     -3.49431568	     11.03258566	      0.00000000	      0.12397167	      2.30065597	      0.45613418	      0.23022778	      3.05987245	      0.48464257	      0.20367305	      5.59381494	      0.48464257	      0.14168722	      5.59381494	      0.39911741	      0.11512009	      4.69149766	      0.37060902	      0.07083741	      3.56371610	      0.34210064	      0.88551722	     26.02548052	      2.53688147	      0.00000000	      0.00000000	      0.00000000	      0.00000000	     -0.00000000	    208.18711578	   -144.02350211	    107.10986078	     71.84748786	     76.46916105	      0.00000000	      5.00000014	   -154.85671942	   -112.44410628	   -608.60068462	     81.99412788	     71.05966324	      0.00000000	      5.00000014
      6.56666670	     30.18334665	      4.55084887	    -95.37664200	      0.54977954	      0.94124830	      0.06104215	     30.79563433	    -14.15542939	    -10.71982470	     40.26825273	      0.70281359	      3.55007961	    -18.96258800	      0.00000000	     25.10159890	     12.23282073	      4.10513890	     30.02485583	      0.52403259	     -3.20991140	     10.92202532	      0.00000000	      0.13326916	      2.26772060	      0.55482247	      0.24749416	      3.01606840	      0.58949887	      0.21894791	      5.51373586	      0.58949887	      0.15231333	      5.51373586	      0.48546966	      0.12375375	      4.62433584	      0.45079326	      0.07615000	      3.51269921	      0.41611685	      0.95192831	     25.65290895	      3.08575612	      0.00000000	      0.00000000	      0.00000000	      0.00000000	     -0.00000000	    207.09151819	   -144.62362497	    106.03723337	     73.07906986	     76.47282786	      0.00000000	      5.00000014	   -155.89835530	   -115.04311892	   -609.26275295	     83.43775319	     71.01648887	      0.00000000	      5.00000014
      6.58333330	     30.05361746	      4.51392474	    -95.40540472	      0.54597769	      0.93933197	      0.06127581	     30.58146717	    -13.71197930	    -10.90778876	     40.15677960	      0.70086802	      3.75125818	    -19.03216030	      0.00000000	     25.02273106	     11.96074895	      4.58198134	     30.12151151	      0.52571955	     -2.95805212	     10.81783342	      0.00000000	      0.14321630	      2.21950207	      0.64210103	      0.26596700	      2.95193776	      0.68223235	      0.23529007	      5.39649734	      0.68223235	      0.16368191	      5.39649734	      0.56183840	      0.13299066	      4.52600863	      0.52170709	      0.08183380	      3.43800871	      0.48157577	      1.02297974	     25.10745135	      3.57117331	      0.00000000	      0.00000000	      0.00000000	      0.00000000	     -0.00000000	    206.08077594	   -145.44394822	    104.96715903	     74.56352153	     76.43228197	      0.00000000	      5.00000014	   -157.25359737	   -118.01863332	   -610.01915383	     85.34374134	     71.04542019	      0.00000000	      5.00000014
